<svg width="767" height="1207" viewBox="0 0 767 1207" fill="none" xmlns="http://www.w3.org/2000/svg">
<g clip-path="url(#clip0_103_60)">
<path d="M4.09961 140.57V1070.31C4.09961 1074.37 4.51961 1078.38 5.33961 1082.34C8.91961 1099.46 20.2296 1115.53 39.0996 1130.26C58.8896 1145.7 86.7196 1159.41 121.85 1171.01C191.93 1194.15 284.76 1206.89 383.26 1206.89C481.76 1206.89 574.6 1194.15 644.67 1171.01C679.79 1159.42 707.63 1145.71 727.42 1130.26C746.29 1115.53 757.6 1099.46 761.18 1082.34C762.01 1078.38 762.42 1074.37 762.42 1070.31V140.57H4.09961Z" fill="#F3E0B2"/>
<path d="M383.26 1198.89C285.59 1198.89 193.64 1186.29 124.35 1163.42C90.0996 1152.11 63.0796 1138.84 44.0196 1123.96C26.7296 1110.46 16.3496 1095.91 13.1696 1080.71C12.4596 1077.31 12.0996 1073.81 12.0996 1070.32V148.56H754.43V1070.31C754.43 1073.8 754.07 1077.3 753.36 1080.7C750.18 1095.9 739.8 1110.45 722.51 1123.95C703.45 1138.83 676.42 1152.1 642.18 1163.41C572.89 1186.29 480.94 1198.88 383.27 1198.88L383.26 1198.89Z" fill="#F3E0B2"/>
<path d="M4.09961 140.57V417.59C4.09961 421.65 4.51961 425.66 5.33961 429.62C8.91961 446.74 20.2296 462.81 39.0996 477.54C58.8896 492.98 86.7196 506.69 121.85 518.29C191.93 541.43 284.76 554.17 383.26 554.17C481.76 554.17 574.6 541.43 644.67 518.29C679.79 506.7 707.63 492.99 727.42 477.54C746.29 462.81 757.6 446.74 761.18 429.62C762.01 425.66 762.42 421.65 762.42 417.59V140.57H4.09961Z" fill="#E05A45"/>
<path d="M727.41 477.54C707.62 492.98 679.79 506.69 644.66 518.29C574.58 541.43 481.75 554.17 383.25 554.17C284.75 554.17 191.91 541.43 121.84 518.29C86.7198 506.7 58.8798 492.99 39.0898 477.54C20.2198 462.81 8.90984 446.74 5.32984 429.62C4.49984 425.66 4.08984 421.65 4.08984 417.59V467.1C4.08984 471.16 4.50984 475.17 5.32984 479.13C8.90984 496.25 20.2198 512.32 39.0898 527.05C58.8798 542.49 86.7098 556.2 121.84 567.8C191.92 590.94 284.75 603.68 383.25 603.68C481.75 603.68 574.59 590.94 644.66 567.8C679.78 556.21 707.62 542.5 727.41 527.05C746.28 512.32 757.59 496.25 761.17 479.13C762 475.17 762.41 471.16 762.41 467.1V417.59C762.41 421.65 761.99 425.66 761.17 429.62C757.59 446.74 746.28 462.81 727.41 477.54Z" fill="#FFF4EB"/>
<path d="M0 140.38V1070.29C0 1074.35 0.42 1078.37 1.26 1082.32C4.88 1099.44 16.31 1115.52 35.38 1130.25C55.38 1145.7 83.51 1159.41 119.01 1171C189.84 1194.14 283.66 1206.88 383.21 1206.88C482.76 1206.88 576.59 1194.14 647.41 1171C682.91 1159.4 711.04 1145.69 731.04 1130.25C750.11 1115.52 761.54 1099.45 765.16 1082.32C766 1078.36 766.42 1074.35 766.42 1070.29V140.38H0ZM758.34 1070.29C758.34 1073.78 757.97 1077.28 757.26 1080.68C754.05 1095.88 743.55 1110.44 726.08 1123.94C706.82 1138.82 679.5 1152.1 644.89 1163.41C574.86 1186.29 481.93 1198.89 383.22 1198.89C284.51 1198.89 191.58 1186.29 121.55 1163.41C86.94 1152.1 59.62 1138.82 40.36 1123.94C22.88 1110.44 12.39 1095.89 9.18 1080.68C8.46 1077.28 8.1 1073.78 8.1 1070.29V148.38H758.36V1070.29H758.34Z" fill="#3B2F2F"/>
<path d="M727.41 80.62C723.64 77.67 719.56 74.79 715.21 71.97C696.74 60.02 673.09 49.25 644.67 39.87C574.59 16.74 481.75 4 383.26 4C284.77 4 191.92 16.74 121.84 39.88C97.0796 48.05 75.9496 57.28 58.6996 67.43C51.4796 71.67 44.9296 76.07 39.0896 80.63C15.8696 98.75 4.09961 118.92 4.09961 140.57C4.09961 162.22 15.8796 182.39 39.0996 200.52C58.8896 215.96 86.7196 229.67 121.85 241.27C191.93 264.41 284.76 277.15 383.26 277.15C481.76 277.15 574.6 264.41 644.67 241.27C679.79 229.68 707.63 215.97 727.42 200.52C750.65 182.39 762.42 162.22 762.42 140.57C762.42 118.92 750.64 98.75 727.42 80.62H727.41Z" fill="#E05A45" stroke="#3A2F2E" stroke-width="8" stroke-miterlimit="10" stroke-linecap="round"/>
<path d="M383.26 256.13C286.94 256.13 196.44 243.76 128.43 221.31C95.6096 210.47 69.8996 197.9 52.0196 183.95C34.1596 170.01 25.0996 155.41 25.0996 140.56C25.0996 125.71 34.1596 111.12 52.0196 97.1697C69.8996 83.2197 95.5996 70.6497 128.43 59.8097C196.44 37.3597 286.94 24.9897 383.26 24.9897C479.58 24.9897 570.08 37.3597 638.09 59.8097C670.91 70.6497 696.62 83.2197 714.5 97.1697C732.36 111.11 741.42 125.71 741.42 140.56C741.42 155.41 732.36 170 714.5 183.95C696.62 197.9 670.92 210.47 638.09 221.31C570.08 243.76 479.58 256.13 383.26 256.13Z" fill="#D8CFC4"/>
<path d="M383.26 29.0098C479.16 29.0098 569.22 41.2998 636.83 63.6298C700.75 84.7298 737.41 112.78 737.41 140.58C737.41 168.38 700.75 196.42 636.83 217.53C569.22 239.85 479.16 252.15 383.26 252.15C287.36 252.15 197.3 239.86 129.69 217.53C65.7696 196.43 29.1096 168.38 29.1096 140.58C29.1096 112.78 65.7696 84.7398 129.69 63.6298C197.3 41.3098 287.36 29.0098 383.26 29.0098ZM383.26 21.0098C183.24 21.0098 21.0996 74.5398 21.0996 140.57C21.0996 206.6 183.24 260.13 383.25 260.13C583.26 260.13 745.4 206.6 745.4 140.57C745.4 74.5398 583.27 21.0098 383.26 21.0098Z" fill="#3B2F2F"/>
<path d="M154.84 927.15C154.84 927.15 45.4303 945.88 70.5603 1018.82C70.5603 1018.82 86.3303 1068.6 136.6 1082.4C136.6 1082.4 135.86 1124.05 237.88 1137.35C339.9 1150.66 361.34 1127.74 387.58 1129.59C413.82 1131.44 450.05 1165.07 509.19 1134.4C509.19 1134.4 581.27 1170.62 674.05 1094.48C766.83 1018.34 577.21 933.69 577.21 933.69L154.84 927.16V927.15Z" fill="#EBD59D"/>
<path d="M320.791 39.6401C292.711 44.8001 289.821 83.6701 289.571 106.36C289.261 133.78 292.531 163.25 300.221 189.65C304.621 204.77 311.451 220.15 324.201 230.06C337.381 240.3 353.931 242.67 370.121 243.13C400.041 243.98 438.301 241.24 462.221 221.12C470.941 213.79 476.411 203.74 476.841 192.25C477.341 178.71 470.871 166.23 463.691 155.2C456.931 144.83 449.981 134.57 442.941 124.38C428.271 103.15 412.821 82.1401 394.981 63.4401C389.431 57.6201 383.651 51.2801 377.071 46.3201C369.141 40.3401 361.921 38.5201 352.231 37.7601C342.241 36.9801 332.621 38.1501 322.751 39.3401C322.091 39.4201 321.431 39.5201 320.801 39.6401H320.791Z" stroke="#3B2F2F" stroke-width="8" stroke-miterlimit="10"/>
<path d="M362.44 145.14C355.24 146.43 348.13 148.18 341.23 150.74C326.44 156.24 313.22 166.83 316.54 184.18C323.19 219.01 348.919 224.48 383.209 218.61C402.199 215.36 426.769 213.57 442.049 200.45C458.139 186.64 448.29 158.76 433.06 148.07C422.93 140.96 409.71 139.89 397.38 141.08C385.76 142.2 373.97 143.07 362.44 145.13V145.14Z" stroke="#3B2F2F" stroke-width="8" stroke-miterlimit="10"/>
<path d="M320.449 140.58C320.449 140.58 353.319 112.96 410.449 120.39" stroke="#3B2F2F" stroke-width="8" stroke-miterlimit="10" stroke-linecap="round"/>
<path d="M538.58 77.5498C538.58 77.5498 622.61 93.3898 649.21 118.59C657.27 126.23 658.44 138.91 651.32 147.44C648.3 151.06 643.72 154.08 636.8 154.64" stroke="#C3BAB0" stroke-width="18" stroke-miterlimit="10" stroke-linecap="round"/>
<path d="M74.8809 132.21C74.8809 132.21 116.101 83.4301 177.661 77.5601" stroke="#C3BAB0" stroke-width="18" stroke-miterlimit="10" stroke-linecap="round"/>
<path d="M165.66 205.25C165.66 205.25 222.01 228.73 284.09 225.08" stroke="#C3BAB0" stroke-width="18" stroke-miterlimit="10" stroke-linecap="round"/>
<path d="M264.651 681.03C264.651 681.03 128.621 626.32 85.7506 818.53C42.8706 1010.74 112.361 1024.05 224.731 1075.8C224.731 1075.8 289.181 1115.72 377.461 1065.45C377.461 1065.45 433.211 1134.94 578.101 1083.19C722.991 1031.44 693.431 972.3 684.551 922.03C675.681 871.76 606.191 809.66 514.521 814.1C514.521 814.1 459.811 809.66 427.291 848.11C427.291 848.11 442.081 772.7 363.711 715.04L264.651 681.03Z" fill="#E05A45"/>
<path d="M254.029 662.32C254.699 659.36 253.699 655.56 253.079 652.58C251.529 645.18 246.029 638.35 246.929 630.51C247.989 621.24 256.849 617.09 265.359 618.75C273.449 620.33 280.659 625.48 285.639 631.9C292.349 640.56 295.789 651.88 300.019 661.87C303.899 671.02 311.599 673.57 320.599 676.63C332.159 680.56 343.239 685.9 353.519 692.49C359.499 696.33 367.169 702.45 365.719 710.58C364.279 718.61 354.679 715.66 349.169 715.21C353.379 720.84 359.979 724.25 364.099 729.79C365.749 732 366.699 734.89 365.979 737.55C364.649 742.42 358.619 744.24 353.579 744.01C346.969 743.71 340.649 741.34 334.549 738.77C330.739 737.16 326.959 735.47 323.229 733.69C319.929 732.12 315.489 728.78 311.999 728.57C312.429 736.72 315.769 745.12 316.469 753.45C317.139 761.34 317.789 773.49 310.489 778.82C296.809 788.8 266.129 752.95 262.069 734.46C262.069 734.46 226.949 752.57 198.489 745.55C170.029 738.53 230.279 694.54 234.339 692.32C234.339 692.32 187.029 680.86 186.289 675.32C185.549 669.78 191.829 656.84 233.229 657.21C241.079 657.28 246.669 660.4 254.029 662.3V662.32Z" fill="#0AA5A5"/>
<path d="M657.571 938.89C662.951 930.16 671.911 914.7 682.471 911.92C689.431 910.09 695.411 921.39 696.481 927.16C698.191 936.4 691.141 945.21 685.661 951.82C669.401 971.41 667.181 970.3 667.181 970.3C667.181 970.3 672.351 1006.15 657.571 1023.53C657.571 1023.53 650.551 1031.29 638.351 998.76C638.351 998.76 603.231 1045.33 573.661 1048.29C573.661 1048.29 559.611 1047.92 582.531 1013.54C582.531 1013.54 595.101 998.02 596.581 990.25C596.581 990.25 579.581 992.47 552.961 959.2C552.961 959.2 544.831 938.87 599.161 949.96C599.161 949.96 572.181 917.8 577.351 885.64C577.351 885.64 588.011 868.64 624.631 921.12C624.631 921.12 638.341 880.09 647.951 881.2C657.561 882.31 661.261 906.34 657.561 938.86L657.571 938.89Z" fill="#0AA5A5"/>
<path d="M417.5 862C417.5 862 372.591 896.08 365.191 953C357.801 1009.92 371 1047.5 371 1047.5" stroke="#FF785D" stroke-width="8" stroke-miterlimit="10" stroke-linecap="round"/>
<path d="M31.2096 248.99C32.3896 246.95 34.0396 245.36 36.1896 244.56C43.5796 241.79 54.1096 245.09 60.6496 248.86C80.9996 260.6 91.4296 263.73 107.61 270.77C123.79 277.81 136.57 278.6 136.83 296.33C136.92 302.41 135.86 310.04 129.45 312.61C121.6 315.76 104.12 307.32 104.12 307.32C104.12 307.32 103.17 317.45 103.05 320.37C102.86 325.13 102.67 329.89 102.49 334.66C102.12 344.4 101.79 354.14 101.48 363.89C100.89 381.44 100.48 398.99 100.13 416.55C99.8896 428.61 102.77 445 91.6396 453.56C89.7996 454.98 87.6296 455.89 85.3496 456.32C81.1296 457.12 77.1496 455.38 73.1296 454.46C69.9796 453.74 66.4796 453.28 64.7696 450.14C63.8996 448.53 63.6596 446.51 63.4196 444.73C61.3896 429.46 63.1396 413.45 63.3896 398.05C63.6096 384.11 63.8096 370.17 64.0096 356.22C64.2896 335.52 64.5596 314.82 64.8096 294.12C64.8096 293.47 64.8296 292.82 64.8296 292.17C64.8296 291.74 59.0996 289.37 58.6196 289.13C53.9596 286.73 49.3896 284.14 44.9996 281.26C40.6096 278.38 35.9096 275.03 32.4196 270.87C28.3696 266.05 27.5296 255.36 31.2096 249.01V248.99Z" fill="#3B2F2F"/>
<path d="M259.399 375.59C258.429 363.61 256.859 351.59 253.869 339.94C251.359 330.19 247.869 320 239.379 313.82C232.739 308.99 224.959 304.33 216.749 301.17C209.399 298.34 201.699 296.7 194.149 297.17C181.599 297.97 171.969 306 166.119 316.77C164.679 319.42 163.459 322.19 162.399 325.02C162.399 325.02 156.659 334.15 156.139 356.32C155.619 378.49 156.139 456.5 156.139 456.5C156.139 456.5 159.009 495.88 196.839 498.75C234.669 501.62 244.059 498.23 254.489 459.36C261.679 432.57 261.629 403.03 259.409 375.57L259.399 375.59ZM223.959 454.16C220.829 462.3 217.549 474.78 206.539 471.9C195.549 469.02 185.759 461.48 183.419 449.92C180.649 436.21 181.609 420.89 181.909 406.96C182.239 391.82 182.889 376.7 182.999 361.56C183.259 325.3 208.309 331.82 208.309 331.82C208.309 331.82 230.479 334.95 231.259 374.86C232.039 414.77 231.779 433.82 223.959 454.16Z" fill="#3B2F2F"/>
<path d="M270.219 339.76C269.979 361.82 269.679 383.89 269.329 405.95C269.329 426.9 268.879 447.85 268.429 468.8C268.229 478.23 267.689 487.73 267.909 497.16C268.049 503.32 270.269 510.02 275.689 513.49C281.109 516.96 290.519 516.59 295.379 512.17C298.499 509.33 299.409 504.85 299.879 500.66C301.959 481.83 300.889 462.27 301.269 443.32C301.499 432.1 301.729 420.89 301.969 409.67C301.969 409.67 304.319 406.8 306.399 414.37C308.479 421.94 330.139 499.54 330.139 499.54C330.139 499.54 331.969 521.07 350.489 520.54C360.929 520.25 368.129 511.59 372.179 502.79C379.419 487.08 377.789 468.11 380.259 451.24C382.219 437.85 384.169 424.14 387.889 411.1C388.109 410.34 389.109 405.4 390.399 405.5C393.819 405.76 392.269 430.36 392.199 432.58C391.679 449.46 389.979 466.15 387.389 482.82C384.859 499.08 381.229 525.04 404.749 524.71C414.559 524.57 418.629 517.8 419.689 508.81C421.739 491.27 419.589 473.25 419.169 455.64C418.849 442.33 418.499 429.02 418.149 415.71C417.589 394.36 416.919 373.02 416.469 351.67C416.239 340.82 418.609 322.17 405.489 317.29C404.499 316.92 403.459 316.67 402.409 316.53C385.449 314.18 383.629 328.79 379.189 346.01C374.749 363.23 345.799 455.31 345.799 455.31C340.039 437.15 334.279 418.99 328.519 400.83C322.549 382 316.169 363.3 311.069 344.25C309.179 337.2 306.919 330.11 302.759 324.11C298.549 318.04 290.439 312.2 282.849 311.97C271.129 311.61 270.399 325.1 270.309 333.76C270.289 335.75 270.269 337.75 270.249 339.74L270.219 339.76Z" fill="#3B2F2F"/>
<path d="M528.46 504.22C527.98 498.89 526.2 493.5 525.24 488.22C519.75 458.25 517.02 427.8 511.61 397.79C509.33 385.12 506.92 372.47 504.39 359.85C501.98 347.88 500.5 335.1 495.4 323.97C492.84 318.38 488.44 313.73 482.2 312.62C478.47 311.96 472.2 312.36 468.77 314.81C468.33 315.12 467.93 315.47 467.6 315.86C466.44 317.19 465.73 318.84 465.11 320.49C461.79 329.3 460.87 338.47 460.37 347.8C459.96 355.48 458.7 363.23 457.78 370.86C453.57 405.66 447.74 440.22 442.13 474.82C440.63 484.09 438.98 493.36 437.75 502.67C436.45 513.11 436.18 522.24 450.01 522.76C463.84 523.28 468.79 521.19 471.4 492.76L473.49 472.15C473.49 472.15 472.71 470.06 479.49 470.32C483.89 470.49 487.29 468.98 489.95 473.41C493.38 479.1 494.92 485.74 496.52 492.12C497.54 496.19 498.74 500.29 499.06 504.5C499.35 508.28 498.42 512.4 501.72 515.22C503.14 516.44 505.02 517 506.88 517.25C515.05 518.36 529.44 514.82 528.48 504.23L528.46 504.22ZM476.61 440.59L479.48 394.16C486.26 411.12 489.39 441.64 489.39 441.64C483.13 444.77 476.61 440.6 476.61 440.6V440.59Z" fill="#3B2F2F"/>
<path d="M563.74 338.59C563.77 340.36 552.86 341.67 551.71 341.66C542.56 341.55 537.95 333.06 537.67 324.83C537.49 319.63 538.87 313.88 541.49 309.38C546.34 301.07 559.56 301.35 567.86 298.96C577.28 296.25 586.91 293.42 595.82 289.29C606.52 284.33 618.52 282.51 623.21 292.94C627.9 303.37 629.73 322.42 598.17 329.98C598.36 343.05 598.47 356.11 598.54 369.18C598.66 392.43 598.71 415.69 598.09 438.93C597.62 456.53 595.87 473.24 591.41 490.38C589.59 497.4 586.3 501.27 578.79 502.03C575.19 502.39 571.24 502.1 568.5 499.75C566.64 498.15 565.58 495.77 565.12 493.36C564.23 488.67 564.93 483.67 565.04 478.94C565.56 456.02 563.74 338.93 563.74 338.59Z" fill="#3B2F2F"/>
<path d="M720.91 279.5C714.65 261.7 702.71 249.96 678.06 256.8C678.06 256.8 642.84 270.89 641.28 323.52C640.25 358.04 634.86 393.4 639.03 427.86C640.36 438.85 643.86 450.17 651.19 458.84C660.4 469.72 672.8 472.56 686.48 469.09C714.26 462.05 724.63 429.76 724.44 412.94C724.24 396.11 727.18 297.31 720.92 279.51L720.91 279.5ZM699.59 393.74C699.98 416.61 694.11 440.33 682.76 440.52C671.41 440.72 666.33 426.63 666.13 410.39C665.93 394.15 665.74 364.02 667.11 330.17C667.35 324.27 667.95 318.35 669.25 312.59C670.87 305.4 674.43 295.91 681.14 291.47C685.13 288.83 689.54 287.86 692.06 292.75C693.93 296.39 694.36 301.16 694.87 305.18C695.41 309.39 695.67 313.74 695.84 317.9C696.1 324.29 696.46 330.38 697.76 336.69C701.65 355.49 699.25 374.7 699.57 393.74H699.59Z" fill="#3B2F2F"/>
</g>
<defs>
<clipPath id="clip0_103_60">
<rect width="766.42" height="1206.88" fill="white"/>
</clipPath>
</defs>
</svg>
