<svg width="85" height="89" viewBox="0 0 85 89" fill="none" xmlns="http://www.w3.org/2000/svg">
<path d="M84.0123 55.5024C83.9914 55.4861 83.9704 55.4698 83.9494 55.4558C82.4002 54.3131 74.4397 48.6159 70.1834 45.5717C69.4473 45.0458 69.4473 43.9542 70.1834 43.4283C74.4397 40.3841 82.4002 34.6869 83.9494 33.5442C83.9704 33.5279 83.9914 33.5116 84.0123 33.4976C85.8901 32.0826 84.9116 29.0687 82.5586 29.0268C82.533 29.0268 82.505 29.0268 82.4794 29.0268C80.5528 29.0129 70.7612 29.078 65.5264 29.1153C64.6202 29.1223 63.9795 28.2379 64.2638 27.3814C65.9155 22.4196 69.0046 13.1359 69.587 11.302C69.594 11.2764 69.6033 11.2508 69.6103 11.2275C70.2976 8.97936 67.7303 7.11751 65.8037 8.46502C65.7827 8.47899 65.7617 8.49528 65.7384 8.51157C64.1729 9.63101 56.287 15.433 52.0749 18.5376C51.3457 19.0753 50.3067 18.7378 50.0341 17.8744C48.4523 12.8916 45.4866 3.56603 44.8786 1.74141C44.8693 1.71581 44.8623 1.69021 44.853 1.66694C44.0865 -0.555646 40.9135 -0.555646 40.147 1.66694C40.1377 1.69254 40.1307 1.71581 40.1214 1.74141C39.5134 3.56603 36.5477 12.8916 34.9659 17.8744C34.6933 18.7355 33.6519 19.0729 32.9251 18.5376C28.713 15.4353 20.8271 9.63101 19.2616 8.51157C19.2406 8.49528 19.2173 8.48132 19.1963 8.46502C17.2697 7.11751 14.7024 8.97936 15.3897 11.2275C15.3967 11.2531 15.406 11.2787 15.413 11.302C15.9931 13.1359 19.0822 22.4196 20.7363 27.3814C21.0228 28.2402 20.3798 29.1223 19.4736 29.1153C14.2388 29.078 4.44722 29.0129 2.52059 29.0268C2.49496 29.0268 2.467 29.0268 2.44138 29.0268C0.0884127 29.0687 -0.892377 32.0826 0.987664 33.4976C1.00863 33.5139 1.0296 33.5302 1.05057 33.5442C2.59979 34.6869 10.5603 40.3841 14.8166 43.4283C15.5527 43.9542 15.5527 45.0458 14.8166 45.5717C10.5603 48.6159 2.59979 54.3131 1.05057 55.4558C1.0296 55.4721 1.00863 55.4884 0.987664 55.5024C-0.890047 56.9174 0.0884127 59.9313 2.44138 59.9731C2.467 59.9731 2.49496 59.9731 2.52059 59.9731C4.44722 59.9871 14.2388 59.9219 19.4736 59.8847C20.3798 59.8777 21.0205 60.7621 20.7363 61.6186C19.0845 66.5804 15.9954 75.8641 15.413 77.698C15.406 77.7236 15.3967 77.7492 15.3897 77.7724C14.7024 80.0206 17.2697 81.8825 19.1963 80.535C19.2173 80.521 19.2383 80.5047 19.2616 80.4884C20.8271 79.369 28.713 73.567 32.9251 70.4624C33.6543 69.9247 34.6933 70.2622 34.9659 71.1256C36.5477 76.1084 39.5134 85.434 40.1214 87.2586C40.1307 87.2842 40.1377 87.3098 40.147 87.3331C40.9135 89.5556 44.0865 89.5556 44.853 87.3331C44.8623 87.3075 44.8693 87.2842 44.8786 87.2586C45.4866 85.434 48.4523 76.1084 50.0341 71.1256C50.3067 70.2645 51.3481 69.9271 52.0749 70.4624C56.287 73.5647 64.1729 79.369 65.7384 80.4884C65.7594 80.5047 65.7827 80.5187 65.8037 80.535C67.7303 81.8825 70.2976 80.0206 69.6103 77.7724C69.6033 77.7468 69.594 77.7213 69.587 77.698C69.007 75.8641 65.9178 66.5804 64.2638 61.6186C63.9772 60.7598 64.6202 59.8777 65.5264 59.8847C70.7612 59.9219 80.5528 59.9871 82.4794 59.9731C82.505 59.9731 82.533 59.9731 82.5586 59.9731C84.9116 59.9313 85.8924 56.9174 84.0123 55.5024ZM50.9194 53.3519C38.7166 62.4308 25.0415 48.7695 34.1295 36.579C34.2064 36.4743 34.3019 36.3812 34.4067 36.302C46.6095 27.2232 60.2847 40.8845 51.1966 53.075C51.1198 53.1797 51.0243 53.2728 50.9194 53.3519Z" fill="#0AA5A5"/>
</svg>
