<svg width="1440" height="928" viewBox="0 0 1440 928" fill="none" xmlns="http://www.w3.org/2000/svg">
<g clip-path="url(#clip0_184_77)">
<path d="M1375 928C1410.9 928 1440 898.898 1440 863V94.898H1439.65C1439.33 84.158 1434.28 0 1355.27 0C1276.26 0 1279.7 84.158 1280.47 94.898H1280.2C1279.87 84.158 1274.81 0 1195.42 0C1116.02 0 1119.48 84.158 1120.25 94.898H1119.98C1119.66 84.158 1114.61 0 1035.6 0C956.594 0 960.035 84.158 960.796 94.898H960.527C960.203 84.158 955.113 0 875.339 0C795.565 0 799.039 84.158 799.808 94.898H799.538C799.216 84.158 794.175 0 715.165 0C636.154 0 639.596 84.158 640.356 94.898H640.087C639.764 84.158 634.699 0 555.307 0C475.914 0 479.372 84.158 480.137 94.898H479.868C479.546 84.158 474.505 0 395.495 0C316.485 0 319.926 84.158 320.687 94.898H320.418C320.093 84.158 315.003 0 235.229 0C155.456 0 158.93 84.158 159.698 94.898H159.427C159.105 84.158 154.064 0 75.0538 0C-8.1237 0 0.0771148 93.269 0.331171 95.962V863C0.331171 898.898 29.4327 928 65.3312 928H1375Z" fill="white"/>
</g>
<defs>
<clipPath id="clip0_184_77">
<rect width="1440" height="928" fill="white" transform="matrix(1 0 0 -1 0 928)"/>
</clipPath>
</defs>
</svg>
