<svg width="1440" height="928" viewBox="0 0 1440 928" fill="none" xmlns="http://www.w3.org/2000/svg">
<path d="M1375 0C1410.9 0 1440 29.1015 1440 65V833.102H1439.65C1439.33 843.842 1434.28 928 1355.27 928C1276.26 928 1279.7 843.842 1280.47 833.102H1280.2C1279.87 843.842 1274.81 928 1195.42 928C1116.02 928 1119.48 843.842 1120.25 833.102H1119.98C1119.66 843.842 1114.61 928 1035.6 928C956.594 928 960.035 843.842 960.796 833.102H960.527C960.203 843.842 955.113 928 875.339 928C795.565 928 799.039 843.842 799.808 833.102H799.538C799.216 843.842 794.175 928 715.165 928C636.154 928 639.596 843.842 640.356 833.102H640.087C639.764 843.842 634.699 928 555.307 928C475.914 928 479.372 843.842 480.137 833.102H479.868C479.546 843.842 474.505 928 395.495 928C316.485 928 319.926 843.842 320.687 833.102H320.418C320.093 843.842 315.003 928 235.229 928C155.456 928 158.93 843.842 159.698 833.102H159.427C159.105 843.842 154.064 928 75.0537 928C-8.12382 928 0.0769989 834.731 0.331055 832.038V65C0.331055 29.1015 29.4326 8.52323e-05 65.3311 0H1375Z" fill="white" fill-opacity="0.01"/>
</svg>
