<svg width="218" height="202" viewBox="0 0 218 202" fill="none" xmlns="http://www.w3.org/2000/svg">
<path d="M124.528 2.36377C127.151 1.3943 129.59 0.862285 131.5 1.02979C134.862 1.32502 137.065 1.72896 138.752 2.98389C140.422 4.22659 141.454 6.21135 142.822 9.14307C143.849 11.3438 142.854 13.478 141.277 15.2388C139.685 17.0164 137.267 18.7013 134.727 20.2085C132.17 21.7251 129.408 23.1084 127.076 24.2593C125.905 24.8373 124.865 25.3458 124.011 25.7827C129.606 27.2803 135.436 27.8661 141.312 28.5669C148.122 29.3751 153.354 29.7996 158.985 34.1841H159.006L159.283 34.4126C159.337 34.4567 159.392 34.5017 159.452 34.5503L159.639 34.7017L159.64 34.7026C165.151 39.2669 170.148 44.1157 176.188 47.6196C181.644 50.7846 186.598 54.7474 191.34 58.7769C196.325 63.0147 198.548 66.5997 200.299 70.5435C202.055 74.4986 203.238 78.5171 206.316 84.0659C213.472 96.9589 217.062 111.523 216.584 126.28L216.582 126.348L216.57 126.417C214.479 138.641 205.274 151.263 195.436 161.592C185.567 171.952 174.9 180.17 169.628 183.586C164.279 187.052 156.993 189.528 149.268 191.509C141.533 193.493 133.241 195.008 125.877 196.5C104.675 200.795 82.2508 202.948 61.1494 195.958C33.5981 186.827 9.21141 163.768 2.41504 134.359L2.10547 132.954C-2.26043 112.223 7.08845 93.8477 16.4443 76.5601L17.7383 74.1431C24.0633 62.2191 28.4367 52.6913 39.4434 43.4438C41.1929 41.9737 42.4537 40.0366 43.5371 37.8491C44.643 35.6161 45.4798 33.3179 46.5303 30.9438C48.5766 26.3193 51.2639 21.8746 57.499 20.7622C63.3039 19.7265 69.2541 19.2611 75.1279 19.2202L78.1494 19.1763C81.2969 19.1386 84.7398 19.2028 87.7412 20.1206C89.9818 20.8058 93.2202 20.8212 96 20.6362C97.3692 20.5451 98.5912 20.4085 99.4707 20.2944C99.8959 20.2393 100.24 20.1883 100.481 20.1519C104.355 14.9812 110.24 10.1222 115.996 6.60596C118.942 4.80641 121.88 3.34286 124.528 2.36377Z" fill="#000000" stroke="none"/>
</svg>
