<svg width="216" height="200" viewBox="0 0 216 200" fill="none" xmlns="http://www.w3.org/2000/svg">
<path d="M123.528 1.36454C126.151 0.395045 128.59 -0.136983 130.5 0.03056C133.862 0.325807 136.065 0.72966 137.752 1.98466C139.423 3.22738 140.454 5.21206 141.822 8.14384V8.14482C142.849 10.3456 141.854 12.4788 140.277 14.2395C138.685 16.0172 136.268 17.7021 133.727 19.2093C131.17 20.7259 128.408 22.1091 126.076 23.2601C124.905 23.8381 123.866 24.3465 123.011 24.7835C128.607 26.2811 134.436 26.8669 140.313 27.5677H140.314C147.123 28.3759 152.354 28.8002 157.985 33.1849H158.006L158.283 33.4134C158.337 33.4575 158.392 33.5025 158.452 33.5511L158.639 33.7024L158.64 33.7034C164.152 38.2678 169.148 43.1164 175.189 46.6204C180.644 49.7854 185.598 53.7481 190.34 57.7776H190.341C195.326 62.0155 197.548 65.6004 199.299 69.5442C201.055 73.4994 202.238 77.5178 205.316 83.0667H205.316C212.471 95.9597 216.062 110.524 215.584 125.281L215.582 125.349L215.57 125.417C213.479 137.642 204.274 150.264 194.436 160.593C184.568 170.953 173.901 179.171 168.628 182.587C163.279 186.053 155.993 188.529 148.268 190.51C140.533 192.494 132.242 194.008 124.877 195.501C103.675 199.796 81.2509 201.948 60.1495 194.958C32.5981 185.828 8.2115 162.769 1.41512 133.36L1.10555 131.954C-3.2604 111.224 6.08852 92.8485 15.4444 75.5608L16.7384 73.1438C23.0634 61.2198 27.4368 51.6921 38.4434 42.4446C40.193 40.9744 41.4538 39.0374 42.5372 36.8499C43.6431 34.6169 44.4799 32.3187 45.5304 29.9446C47.5767 25.32 50.2639 20.8754 56.4991 19.763C62.3041 18.7273 68.2542 18.2619 74.128 18.221L77.1495 18.177C80.297 18.1393 83.7399 18.2035 86.7413 19.1214C88.982 19.8066 92.2202 19.822 95.0001 19.637C96.3694 19.5459 97.5913 19.4093 98.4708 19.2952C98.896 19.24 99.2405 19.1891 99.4815 19.1526C103.355 13.9819 109.24 9.12298 114.996 5.60673C117.942 3.80716 120.88 2.34364 123.528 1.36454ZM130.325 2.02372C128.856 1.89484 126.75 2.30611 124.222 3.24052C121.719 4.16546 118.899 5.56645 116.039 7.31376C110.307 10.8154 104.516 15.6442 100.848 20.6673L100.608 20.9954L100.208 21.0638H100.205C100.204 21.064 100.202 21.0643 100.199 21.0647C100.194 21.0656 100.188 21.0672 100.179 21.0686C100.161 21.0716 100.135 21.0759 100.101 21.0813C100.033 21.0923 99.9331 21.1079 99.8057 21.1272C99.5511 21.1659 99.1838 21.2195 98.7286 21.2786C97.8189 21.3966 96.5539 21.5385 95.1329 21.6331C92.3317 21.8195 88.7741 21.835 86.1563 21.0345C82.5309 19.9258 78.169 20.1898 74.1436 20.221H74.1427C68.3628 20.2612 62.527 20.719 56.8507 21.7317C51.66 22.6578 49.3512 26.2528 47.3595 30.7542C46.391 32.943 45.4478 35.479 44.3292 37.7376C43.188 40.0419 41.7794 42.2541 39.7305 43.9759C28.3556 53.5327 24.3595 63.275 17.2042 76.512H17.2032C7.80515 93.8775 -1.13195 111.626 3.06258 131.542L3.36434 132.909C9.97954 161.531 33.7754 184.111 60.7784 193.06L61.7452 193.373C82.0616 199.817 103.706 197.749 124.48 193.541C131.898 192.037 140.102 190.539 147.771 188.573C155.449 186.603 162.475 184.192 167.541 180.909C172.683 177.578 183.228 169.46 192.987 159.214C202.757 148.957 211.579 136.729 213.586 125.146C214.038 110.78 210.539 96.5992 203.567 84.0374C200.443 78.4054 199.109 74.0466 197.471 70.3558C195.827 66.6539 193.776 63.323 189.045 59.3011C184.323 55.2886 179.48 51.4218 174.185 48.3499C167.953 44.7348 162.715 39.6753 157.364 35.2444C157.34 35.2247 157.316 35.2051 157.291 35.1849L157.017 34.9651C151.791 30.7843 147.082 30.3854 140.078 29.554H140.077C133.483 28.7676 126.646 28.1048 120.144 26.0306L118.191 25.4075L119.884 24.2513C120.881 23.571 122.908 22.5927 125.191 21.4661C127.523 20.3148 130.224 18.9627 132.707 17.4895C135.206 16.007 137.407 14.447 138.788 12.9046C140.097 11.4427 140.474 10.2413 140.096 9.19658L140.01 8.99052C138.6 5.96965 137.756 4.4809 136.559 3.59013C135.378 2.71186 133.718 2.32173 130.325 2.02372Z" stroke="#0AA5A5" stroke-width="3.2" stroke-linecap="round" stroke-linejoin="round"/>
</svg>
