<svg width="59" height="130" viewBox="0 0 59 130" fill="none" xmlns="http://www.w3.org/2000/svg">
<path d="M43.6815 100.61L41.6931 100.825L41.6815 100.718L41.6815 100.61L43.6815 100.61ZM2.32691 100.824L4.32688 100.813L4.32734 100.898L4.32062 100.982L2.32691 100.824ZM1.99977 39.8224L3.99909 39.7704L3.99963 39.791L3.99974 39.8117L1.99977 39.8224ZM28.9374 37.4526L30.9361 37.3817L30.9376 37.4237L30.9373 37.4657L28.9374 37.4526ZM28.4772 107.544L26.5047 107.875L26.4761 107.704L26.4772 107.531L28.4772 107.544ZM15.7348 108.915L17.7348 108.925L17.7341 109.069L17.7127 109.212L15.7348 108.915ZM14.0164 47.5453C14.0215 46.4408 14.921 45.5494 16.0255 45.5545C17.1301 45.5596 18.0214 46.4591 18.0164 47.5637L16.0164 47.5545L14.0164 47.5453ZM42.2673 0.585781C43.0484 -0.195263 44.3147 -0.19526 45.0957 0.58578L57.8237 13.3137C58.6047 14.0948 58.6047 15.3611 57.8237 16.1421C57.0426 16.9232 55.7763 16.9232 54.9952 16.1421L43.6815 4.82843L32.3678 16.1421C31.5868 16.9232 30.3204 16.9232 29.5394 16.1421C28.7583 15.3611 28.7583 14.0948 29.5394 13.3137L42.2673 0.585781ZM43.6815 100.61C45.6699 100.395 45.67 100.396 45.6701 100.397C45.6702 100.397 45.6703 100.398 45.6704 100.399C45.6706 100.401 45.6709 100.404 45.6712 100.406C45.6717 100.412 45.6725 100.419 45.6733 100.428C45.6751 100.445 45.6774 100.469 45.6803 100.499C45.6859 100.559 45.6934 100.643 45.7019 100.751C45.7189 100.966 45.7399 101.273 45.7576 101.66C45.793 102.433 45.8156 103.527 45.7668 104.837C45.6697 107.444 45.2876 110.969 44.1215 114.537C42.955 118.106 40.9727 121.81 37.6162 124.641C34.2306 127.497 29.6001 129.335 23.3953 129.399L23.3748 127.399L23.3543 125.399C28.7392 125.344 32.442 123.773 35.037 121.584C37.6611 119.37 39.3067 116.392 40.3195 113.294C41.3326 110.194 41.681 107.066 41.7696 104.688C41.8137 103.505 41.7929 102.523 41.7618 101.843C41.7462 101.503 41.7281 101.24 41.7144 101.066C41.7075 100.979 41.7017 100.914 41.6979 100.874C41.6959 100.853 41.6945 100.839 41.6937 100.831C41.6933 100.827 41.693 100.824 41.6929 100.823C41.6929 100.823 41.6929 100.823 41.6929 100.823C41.6929 100.823 41.693 100.824 41.693 100.824C41.6931 100.824 41.6931 100.825 43.6815 100.61ZM23.3748 127.399L23.3953 129.399C17.1863 129.462 12.5073 127.705 9.04774 124.9C5.61864 122.121 3.53716 118.435 2.27333 114.868C1.00972 111.302 0.529843 107.762 0.36018 105.138C0.274948 103.821 0.267064 102.719 0.2809 101.94C0.287826 101.55 0.30021 101.24 0.311194 101.023C0.316688 100.915 0.321837 100.83 0.325787 100.77C0.327763 100.74 0.329439 100.716 0.33071 100.698C0.331346 100.689 0.33188 100.682 0.332299 100.677C0.332509 100.674 0.33269 100.672 0.332841 100.67C0.332917 100.669 0.333006 100.668 0.333044 100.667C0.333127 100.666 0.333201 100.665 2.32691 100.824C4.32062 100.982 4.32068 100.981 4.32073 100.981C4.32073 100.981 4.32078 100.98 4.32079 100.98C4.32081 100.98 4.3208 100.98 4.32077 100.98C4.32069 100.981 4.3205 100.984 4.3202 100.988C4.31959 100.996 4.31857 101.011 4.31722 101.031C4.31451 101.073 4.31052 101.138 4.30606 101.226C4.29714 101.402 4.28636 101.668 4.28027 102.011C4.26807 102.697 4.27474 103.688 4.35184 104.88C4.50684 107.277 4.94276 110.425 6.04366 113.532C7.14436 116.639 8.87611 119.612 11.5666 121.793C14.2266 123.949 17.9735 125.454 23.3543 125.399L23.3748 127.399ZM2.32691 100.824L0.326939 100.834L-0.000205133 39.8332L1.99977 39.8224L3.99974 39.8117L4.32688 100.813L2.32691 100.824ZM1.99977 39.8224C0.000443617 39.8745 0.000411544 39.8732 0.000378689 39.8719C0.000366251 39.8714 0.000333591 39.8701 0.000311077 39.8691C0.000264034 39.8672 0.000217601 39.8651 0.000169136 39.8628C7.22038e-05 39.8582 -2.92936e-05 39.853 -0.000124106 39.847C-0.000317297 39.8351 -0.000494858 39.8206 -0.00060177 39.8034C-0.000813747 39.7691 -0.000739251 39.7243 7.97159e-05 39.6696C0.00171649 39.5605 0.00633183 39.4117 0.0176311 39.229C0.0401828 38.8642 0.0896359 38.3595 0.196731 37.7602C0.409642 36.5689 0.858426 34.9591 1.81348 33.3283C3.80262 29.9317 7.76658 26.8278 15.1491 26.7521L15.1696 28.752L15.1902 30.7519C9.11833 30.8142 6.49735 33.2456 5.26515 35.3497C4.60953 36.4692 4.28854 37.6011 4.13434 38.4639C4.05789 38.8918 4.02445 39.2422 4.01001 39.4758C4.00281 39.5923 4.0004 39.6786 3.99963 39.7296C3.99925 39.7551 3.99928 39.7717 3.99932 39.7787C3.99934 39.7822 3.99937 39.7834 3.99935 39.782C3.99934 39.7813 3.99931 39.78 3.99927 39.7781C3.99925 39.7771 3.99923 39.776 3.9992 39.7747C3.99918 39.7741 3.99915 39.773 3.99915 39.7727C3.99912 39.7716 3.99909 39.7704 1.99977 39.8224ZM15.1696 28.752L15.1491 26.7521C22.3554 26.6782 26.4373 29.0318 28.6585 31.7985C29.7362 33.1409 30.3021 34.4923 30.5991 35.5168C30.7478 36.0298 30.8307 36.4662 30.8771 36.7874C30.9003 36.9482 30.9145 37.0812 30.9232 37.1815C30.9275 37.2317 30.9304 37.2739 30.9325 37.3074C30.9335 37.3242 30.9342 37.3388 30.9348 37.3512C30.9351 37.3574 30.9354 37.3631 30.9356 37.3682C30.9357 37.3707 30.9358 37.3731 30.9359 37.3754C30.9359 37.3765 30.936 37.3781 30.936 37.3787C30.936 37.3802 30.9361 37.3817 28.9374 37.4526C26.9386 37.5235 26.9387 37.5249 26.9387 37.5263C26.9387 37.5268 26.9388 37.5281 26.9388 37.529C26.9389 37.5307 26.9389 37.5323 26.939 37.5338C26.9391 37.5368 26.9392 37.5392 26.9393 37.5412C26.9395 37.5451 26.9396 37.547 26.9396 37.5471C26.9396 37.5472 26.9392 37.5397 26.9379 37.5252C26.9354 37.4961 26.9298 37.4393 26.9181 37.3588C26.8948 37.1971 26.8481 36.9441 26.7573 36.6306C26.5751 36.0022 26.2217 35.1527 25.5393 34.3026C24.2403 32.6846 21.4383 30.6878 15.1902 30.7519L15.1696 28.752ZM28.9374 37.4526L30.9373 37.4657L30.4772 107.557L28.4772 107.544L26.4772 107.531L26.9374 37.4395L28.9374 37.4526ZM28.4772 107.544C30.4497 107.213 30.4498 107.214 30.45 107.215C30.4501 107.216 30.4503 107.217 30.4504 107.218C30.4507 107.22 30.451 107.221 30.4513 107.223C30.4519 107.227 30.4526 107.231 30.4533 107.236C30.4548 107.245 30.4564 107.255 30.4582 107.268C30.4618 107.292 30.4661 107.322 30.4707 107.358C30.4799 107.43 30.4906 107.526 30.5 107.641C30.5189 107.87 30.5337 108.184 30.5221 108.556C30.4993 109.287 30.3726 110.312 29.9206 111.372C29.4586 112.456 28.6599 113.564 27.3437 114.39C26.0393 115.209 24.3622 115.666 22.2726 115.688L22.2521 113.688L22.2316 111.688C23.7635 111.672 24.6752 111.343 25.2171 111.003C25.7472 110.67 26.052 110.247 26.241 109.804C26.4398 109.337 26.5113 108.84 26.524 108.431C26.5302 108.233 26.522 108.072 26.5136 107.969C26.5093 107.918 26.5052 107.883 26.503 107.866C26.5019 107.857 26.5014 107.854 26.5016 107.855C26.5017 107.856 26.502 107.858 26.5025 107.861C26.5027 107.862 26.5031 107.864 26.5034 107.867C26.5036 107.868 26.5038 107.869 26.504 107.87C26.5042 107.871 26.5043 107.872 26.5044 107.873C26.5046 107.874 26.5047 107.875 28.4772 107.544ZM22.2521 113.688L22.2726 115.688C18.1785 115.73 15.7607 114.349 14.5639 112.361C14.0106 111.442 13.8105 110.533 13.7444 109.87C13.7111 109.535 13.7105 109.25 13.7196 109.038C13.7242 108.931 13.7313 108.841 13.7383 108.771C13.7419 108.736 13.7454 108.705 13.7486 108.68C13.7501 108.667 13.7517 108.656 13.7531 108.646C13.7538 108.641 13.7544 108.636 13.7551 108.632C13.7554 108.629 13.7557 108.627 13.756 108.625C13.7561 108.624 13.7564 108.623 13.7564 108.622C13.7566 108.621 13.7569 108.619 15.7348 108.915C17.7127 109.212 17.713 109.21 17.7132 109.209C17.7132 109.208 17.7134 109.207 17.7136 109.206C17.7138 109.204 17.7141 109.203 17.7143 109.201C17.7148 109.198 17.7152 109.195 17.7156 109.192C17.7163 109.187 17.7169 109.182 17.7173 109.179C17.7182 109.172 17.7185 109.169 17.7185 109.169C17.7184 109.17 17.717 109.184 17.7159 109.21C17.7137 109.262 17.7129 109.355 17.7247 109.473C17.7489 109.716 17.8201 110.014 17.9907 110.298C18.2417 110.715 19.0826 111.72 22.2316 111.688L22.2521 113.688ZM15.7348 108.915L13.7348 108.906L14.0164 47.5453L16.0164 47.5545L18.0164 47.5637L17.7348 108.925L15.7348 108.915ZM43.6815 100.61L41.6815 100.61L41.6815 2L43.6815 2L45.6815 2L45.6815 100.61L43.6815 100.61Z" fill="#3B2F2F"/>
</svg>
