<svg width="23" height="23" viewBox="0 0 23 23" fill="none" xmlns="http://www.w3.org/2000/svg">
<path d="M6.4668 8.51758L9.468 12.7187C9.59154 12.8917 9.7531 13.034 9.94025 13.1348C10.1274 13.2355 10.3352 13.292 10.5476 13.3C10.76 13.3079 10.9714 13.267 11.1655 13.1804C11.3596 13.0939 11.5313 12.964 11.6674 12.8007L21.5001 1" stroke="#1F2A44" stroke-width="2" stroke-linecap="round" stroke-linejoin="round"/>
<path d="M20.1333 9.88434V18.7677C20.1333 19.4926 19.8454 20.1878 19.3328 20.7004C18.8202 21.213 18.1249 21.501 17.4 21.501H3.73333C3.00841 21.501 2.31317 21.213 1.80057 20.7004C1.28798 20.1878 1 19.4926 1 18.7677V5.10101C1 4.37608 1.28798 3.68085 1.80057 3.16825C2.31317 2.65565 3.00841 2.36768 3.73333 2.36768H15.35" stroke="#1F2A44" stroke-width="2" stroke-linecap="round" stroke-linejoin="round"/>
</svg>
