<svg width="314" height="242" viewBox="0 0 314 242" fill="none" xmlns="http://www.w3.org/2000/svg">
<g clip-path="url(#clip0_38_403)">
<path d="M101.222 8.45403C101.222 8.45403 -2.86386 48.1888 0.0620117 138.593C1.39197 179.711 38.8824 204.78 73.349 218.936C92.6192 226.852 112.855 232.407 133.26 236.536C162.455 242.44 193.114 245.354 221.89 235.83C260.129 223.184 303.877 186.167 312.501 145.279C318.409 117.276 305.788 92.3883 292.86 68.5069C283.046 50.3827 271.651 33.1389 255.698 19.7589C212.237 -16.692 101.215 8.46101 101.215 8.46101L101.222 8.45403Z" fill="#E15B47"/>
<path d="M251.905 115.655C251.905 115.655 264.512 87.3717 272.953 89.866C281.395 92.3603 282.844 93.3455 284.265 100.919C285.686 108.493 274.283 127.658 260.753 137.286C260.753 137.286 259.479 147.313 261.964 152.644C264.442 157.975 267.102 189.905 259.549 195.236C252.003 200.567 248.076 185.65 243.918 178.195C243.918 178.195 235.393 197.248 226.93 201.406C218.468 205.563 219.412 196.696 220.721 192.309C222.03 187.921 226.377 168.183 231.312 155.837C231.312 155.837 223.486 155.886 214.625 158.499C205.763 161.112 172.794 168.099 166.978 162.237C161.161 156.375 181.915 143.344 212.413 132.941C212.413 132.941 182.937 125.576 181.418 120.28C179.899 114.984 189.377 113.23 214.002 115.354C214.002 115.354 226.776 117.059 227.616 113.831C228.456 110.603 229.576 82.893 233.797 73.7611C233.797 73.7611 237.885 69.8344 241.63 79.0083C245.374 88.1891 251.905 115.641 251.905 115.641V115.655Z" fill="#0AA5A5"/>
</g>
<defs>
<clipPath id="clip0_38_403">
<rect width="314" height="242" fill="white" transform="matrix(-1 0 0 1 314 0)"/>
</clipPath>
</defs>
</svg>
