<svg width="449" height="402" viewBox="0 0 449 402" fill="none" xmlns="http://www.w3.org/2000/svg">
<g clip-path="url(#clip0_1_176)">
<path d="M303.98 67.0602C303.98 67.0602 452.68 123.93 448.5 253.32C446.6 312.17 393.04 348.05 343.8 368.31C316.27 379.64 287.36 387.59 258.21 393.5C216.5 401.95 172.7 406.12 131.59 392.49C76.9596 374.38 14.4596 321.41 2.13958 262.88C-6.30042 222.8 11.7296 187.18 30.1996 153C44.2196 127.06 60.4996 102.38 83.2896 83.2302C145.38 31.0602 303.99 67.0602 303.99 67.0602H303.98Z" fill="#E15B47"/>
<path d="M258.764 58.7938C258.764 58.7938 306.114 37.6638 300.634 25.9238C295.154 14.1838 293.244 12.2338 279.914 11.0538C266.584 9.87383 234.894 28.2738 220.024 48.6238C220.024 48.6238 202.804 51.5538 193.224 48.6238C183.644 45.6938 127.874 45.4938 119.654 56.8438C111.434 68.1938 137.854 72.1038 151.354 77.1938C151.354 77.1938 119.464 91.4738 113.394 103.994C107.324 116.514 122.594 114.164 130.024 111.824C137.454 109.484 171.114 101.064 191.854 92.6538C191.854 92.6538 192.834 103.804 189.504 116.724C186.174 129.644 178.544 177.374 189.504 185.004C200.464 192.634 220.254 161.614 234.144 117.004C234.144 117.004 250.934 158.164 260.324 159.724C269.714 161.284 271.474 147.594 264.434 112.764C264.434 112.764 259.734 94.7638 265.214 93.1938C270.694 91.6238 318.624 86.9338 333.884 79.8938C333.884 79.8938 340.144 73.6338 323.714 69.3238C307.284 65.0138 258.764 58.7938 258.764 58.7938Z" fill="#0AA5A5"/>
</g>
<defs>
<clipPath id="clip0_1_176">
<rect width="448.59" height="401.31" fill="white"/>
</clipPath>
</defs>
</svg>
