<svg width="378" height="361" viewBox="0 0 378 361" fill="none" xmlns="http://www.w3.org/2000/svg">
<g clip-path="url(#clip0_38_407)">
<path d="M256.05 348.61C256.05 348.61 381.3 291.74 377.78 162.35C376.18 103.5 331.07 67.62 289.59 47.36C266.4 36.03 242.05 28.08 217.5 22.17C182.37 13.72 145.47 9.54999 110.85 23.18C64.8195 41.28 12.1795 94.26 1.79954 152.78C-5.31046 192.86 9.87954 228.48 25.4395 262.66C37.2495 288.6 50.9595 313.28 70.1495 332.43C122.45 384.6 256.05 348.6 256.05 348.6V348.61Z" fill="#E15B47"/>
<path d="M265.6 38.7202C265.6 38.7202 309.92 29.0302 307.56 17.6802C305.19 6.32022 303.95 4.25021 292.86 0.71022C281.77 -2.82977 251.27 7.39023 234.68 22.5002C234.68 22.5002 219.49 21.8502 211.92 17.4602C204.35 13.0802 157.03 2.43021 147.85 10.8602C138.66 19.3002 160.33 27.7002 170.81 34.7102C170.81 34.7102 140.95 41.2802 133.36 51.1502C125.77 61.0202 139.19 61.8302 145.96 61.1602C152.73 60.4902 182.95 59.4202 202.2 55.9102C202.2 55.9102 200.86 65.9002 195.52 76.6402C190.18 87.3702 174.41 127.93 182.23 136.7C190.05 145.47 212.89 121.9 233.37 85.2802C233.37 85.2802 239.62 124.64 247.29 127.78C254.96 130.92 259.12 119.21 259.92 87.2502C259.92 87.2502 259.44 70.5302 264.39 70.1902C269.34 69.8502 310.97 74.7202 325.3 71.3902C325.3 71.3902 331.84 67.0602 318.72 60.1802C305.6 53.3002 265.61 38.7102 265.61 38.7102L265.6 38.7202Z" fill="#0AA5A5"/>
</g>
<defs>
<clipPath id="clip0_38_407">
<rect width="377.85" height="360.71" fill="white" transform="matrix(1 0 0 -1 0 360.71)"/>
</clipPath>
</defs>
</svg>
