<svg width="218" height="190" viewBox="0 0 218 190" fill="none" xmlns="http://www.w3.org/2000/svg">
<path d="M135.945 0.0725978C145.559 0.923657 168.251 31.145 161.288 33.8728C182.117 45.4026 219.286 72.405 217.821 117.733C216.899 146.315 190.886 163.741 166.972 173.581C153.602 179.083 139.561 182.944 125.404 185.815C105.146 189.918 83.8743 191.944 63.9086 185.324C37.3766 176.529 7.02217 150.803 1.03865 122.377C-3.06037 102.911 5.69609 85.6116 14.6663 69.0115C21.4754 56.4133 29.3825 44.4269 40.4508 35.1264C55.0326 22.8744 73.9619 12.2396 93.842 18.3192C112.26 23.9522 117.855 -1.52878 135.945 0.0725978Z" fill="white"/>
<path d="M140.998 38.856C140.998 38.856 200.835 61.7404 199.153 113.807C198.388 137.488 176.836 151.926 157.021 160.078C145.943 164.638 134.31 167.837 122.58 170.215C105.796 173.615 88.1713 175.293 71.6287 169.808C49.6457 162.521 24.4958 141.206 19.5383 117.654C16.1421 101.525 23.3973 87.192 30.8296 73.4381C36.4712 62.9999 43.0222 53.0687 52.1929 45.3628C77.1777 24.3697 141.002 38.856 141.002 38.856H140.998Z" fill="#E15B47"/>
<path d="M122.803 35.5297C122.803 35.5297 141.857 27.0271 139.652 22.3029C137.447 17.5788 136.678 16.7941 131.314 16.3193C125.95 15.8444 113.198 23.2486 107.214 31.4374C107.214 31.4374 100.285 32.6164 96.4302 31.4374C92.5752 30.2583 70.1335 30.1778 66.8258 34.7451C63.518 39.3123 74.1494 40.8857 79.5818 42.9339C79.5818 42.9339 66.7493 48.6801 64.3067 53.7181C61.8642 58.7561 68.0088 57.8105 70.9986 56.8689C73.9884 55.9273 87.5331 52.5391 95.8789 49.1549C95.8789 49.1549 96.2732 53.6417 94.9332 58.8406C93.5933 64.0396 90.523 83.2461 94.9332 86.3164C99.3435 89.3867 107.307 76.9043 112.896 58.9533C112.896 58.9533 119.653 75.516 123.431 76.1437C127.21 76.7715 127.918 71.2627 125.085 57.2471C125.085 57.2471 123.194 50.004 125.399 49.3722C127.604 48.7405 146.891 46.8532 153.031 44.0203C153.031 44.0203 155.55 41.5013 148.939 39.767C142.328 38.0326 122.803 35.5297 122.803 35.5297Z" fill="#0AA5A5"/>
</svg>
