<svg width="48" height="48" viewBox="0 0 48 48" fill="none" xmlns="http://www.w3.org/2000/svg">
<path d="M5.41349 20.59C4.96539 21.0376 4.60991 21.5692 4.36737 22.1543C4.12484 22.7394 4 23.3666 4 24C4 24.6334 4.12484 25.2605 4.36737 25.8457C4.60991 26.4308 4.96539 26.9623 5.41349 27.41L20.5895 42.586C21.0371 43.0341 21.5687 43.3896 22.1538 43.6321C22.7389 43.8746 23.3661 43.9995 23.9995 43.9995C24.6329 43.9995 25.2601 43.8746 25.8452 43.6321C26.4303 43.3896 26.9618 43.0341 27.4095 42.586L42.5855 27.41C43.0336 26.9623 43.3891 26.4308 43.6316 25.8457C43.8741 25.2605 43.999 24.6334 43.999 24C43.999 23.3666 43.8741 22.7394 43.6316 22.1543C43.3891 21.5692 43.0336 21.0376 42.5855 20.59L27.4095 5.41398C26.9618 4.96588 26.4303 4.6104 25.8452 4.36786C25.2601 4.12533 24.6329 4.00049 23.9995 4.00049C23.3661 4.00049 22.7389 4.12533 22.1538 4.36786C21.5687 4.6104 21.0371 4.96588 20.5895 5.41398L5.41349 20.59Z" stroke="#1F2A44" stroke-width="3" stroke-linecap="round" stroke-linejoin="round"/>
<path d="M20.5815 19C20.1137 18.9997 19.6504 19.0917 19.2181 19.2706C18.7858 19.4495 18.393 19.7119 18.0622 20.0427C17.7314 20.3735 17.4691 20.7663 17.2901 21.1986C17.1112 21.6309 17.0193 22.0942 17.0195 22.562C17.0195 26.5 23.7695 31 23.7695 31C23.7695 31 30.5195 26.5 30.5195 22.562C30.5195 20.124 28.9255 19 26.9575 19C25.5615 19 24.3535 19.8 23.7695 20.97C23.4739 20.3777 23.0189 19.8796 22.4557 19.5316C21.8926 19.1836 21.2435 18.9995 20.5815 19Z" stroke="#1F2A44" stroke-width="3" stroke-linecap="round" stroke-linejoin="round"/>
</svg>
