<svg width="240" height="80" viewBox="0 0 240 80" fill="none" xmlns="http://www.w3.org/2000/svg">
<path d="M91.5 40.2417C91.5 53.4965 80.7548 64.2417 67.5 64.2417C54.2452 64.2417 43.5 53.4965 43.5 40.2417C43.5 26.9869 54.2452 16.2417 67.5 16.2417C80.7548 16.2417 91.5 26.9869 91.5 40.2417Z" fill="#FF785D"/>
<path d="M66.3688 17.5754C68.3478 17.7673 68.6448 21.7102 68.546 23.6577C70.5125 22.6336 74.6497 21.4015 75.4669 24.666C76.2842 27.9305 72.4525 29.0752 70.4345 29.2395C71.898 30.6186 74.1031 33.8602 71.2163 35.7938C67.6077 38.2109 65.3531 30.8388 65.2473 31.2335C65.1416 31.6282 64.0841 35.5747 60.6379 34.2283C57.881 33.1512 60.4246 29.2363 62.041 27.4134C60.2603 27.2183 56.8893 26.1176 57.6507 23.2761C58.412 20.4345 62.2668 21.834 64.0991 22.889C64.2048 22.4943 63.8951 17.3356 66.3688 17.5754Z" fill="#0AA5A5"/>
<path d="M108.592 39.244C108.592 38.0493 108.9 36.9947 109.516 36.08C110.132 35.1653 110.981 34.456 112.064 33.952C113.165 33.4293 114.435 33.168 115.872 33.168C117.253 33.168 118.448 33.4107 119.456 33.896C120.483 34.3813 121.276 35.072 121.836 35.968C122.415 36.864 122.723 37.928 122.76 39.16H119.176C119.139 38.2827 118.821 37.6013 118.224 37.116C117.627 36.612 116.824 36.36 115.816 36.36C114.715 36.36 113.828 36.612 113.156 37.116C112.503 37.6013 112.176 38.2733 112.176 39.132C112.176 39.86 112.372 40.4387 112.764 40.868C113.175 41.2787 113.809 41.5867 114.668 41.792L117.888 42.52C119.643 42.8933 120.949 43.5373 121.808 44.452C122.667 45.348 123.096 46.5613 123.096 48.092C123.096 49.3427 122.788 50.444 122.172 51.396C121.556 52.348 120.679 53.0853 119.54 53.608C118.42 54.112 117.104 54.364 115.592 54.364C114.155 54.364 112.895 54.1213 111.812 53.636C110.729 53.132 109.88 52.432 109.264 51.536C108.667 50.64 108.349 49.5853 108.312 48.372H111.896C111.915 49.2307 112.251 49.912 112.904 50.416C113.576 50.9013 114.481 51.144 115.62 51.144C116.815 51.144 117.757 50.9013 118.448 50.416C119.157 49.912 119.512 49.2493 119.512 48.428C119.512 47.7187 119.325 47.1587 118.952 46.748C118.579 46.3187 117.972 46.02 117.132 45.852L113.884 45.124C112.148 44.7507 110.832 44.0787 109.936 43.108C109.04 42.1187 108.592 40.8307 108.592 39.244ZM125.638 46.524V33.532H129.222V46.3C129.222 47.7747 129.614 48.904 130.398 49.688C131.182 50.472 132.293 50.864 133.73 50.864C135.186 50.864 136.306 50.472 137.09 49.688C137.874 48.8853 138.266 47.756 138.266 46.3V33.532H141.85V46.524C141.85 48.1107 141.514 49.492 140.842 50.668C140.189 51.8253 139.256 52.7307 138.042 53.384C136.829 54.0187 135.392 54.336 133.73 54.336C132.088 54.336 130.66 54.0187 129.446 53.384C128.233 52.7493 127.29 51.844 126.618 50.668C125.965 49.492 125.638 48.1107 125.638 46.524ZM149.171 54H145.699V33.532H149.171L155.779 49.828L162.387 33.532H165.915V54H162.443V47.7C162.443 46.6733 162.443 45.8147 162.443 45.124C162.443 44.4147 162.452 43.8173 162.471 43.332C162.489 42.8467 162.508 42.4173 162.527 42.044C162.545 41.6707 162.583 41.2973 162.639 40.924L157.431 54H154.127L148.947 40.952C149.04 41.568 149.096 42.352 149.115 43.304C149.152 44.256 149.171 45.376 149.171 46.664V54ZM173.469 33.532V54H169.885V33.532H173.469ZM180.974 54H177.446V33.532H181.002L191.642 49.632H190.606V33.532H194.134V54H190.606L179.938 37.928H180.974V54Z" fill="#3B2F2F"/>
</svg>
