<svg width="16" height="16" viewBox="0 0 16 16" fill="none" xmlns="http://www.w3.org/2000/svg">
<path d="M15.8405 8.07991C15.8405 12.4541 12.2945 16.0001 7.92024 16.0001C3.54601 16.0001 0 12.4541 0 8.07991C0 3.70568 3.54601 0.159668 7.92024 0.159668C12.2945 0.159668 15.8405 3.70568 15.8405 8.07991Z" fill="#FF785D"/>
<path d="M7.54727 0.599669C8.20035 0.662987 8.29838 1.9642 8.26577 2.60689C8.91472 2.26891 10.28 1.8623 10.5497 2.93962C10.8194 4.01695 9.55496 4.39471 8.889 4.44892C9.37195 4.90404 10.0997 5.97381 9.14698 6.61192C7.95611 7.40956 7.21207 4.97673 7.17717 5.10697C7.14227 5.23721 6.79329 6.53962 5.65602 6.0953C4.7462 5.73984 5.58561 4.44786 6.11904 3.8463C5.5314 3.7819 4.41893 3.41868 4.6702 2.48094C4.92146 1.5432 6.19358 2.00505 6.79823 2.35319C6.83313 2.22295 6.73093 0.520523 7.54727 0.599669Z" fill="#0AA5A5"/>
</svg>
