<svg width="48" height="49" viewBox="0 0 48 49" fill="none" xmlns="http://www.w3.org/2000/svg">
<path d="M48 24.2417C48 37.4965 37.2548 48.2417 24 48.2417C10.7452 48.2417 0 37.4965 0 24.2417C0 10.9869 10.7452 0.241699 24 0.241699C37.2548 0.241699 48 10.9869 48 24.2417Z" fill="#FF785D"/>
<path d="M22.8688 1.57543C24.8478 1.76729 25.1448 5.71023 25.046 7.65772C27.0125 6.63359 31.1497 5.40146 31.9669 8.66599C32.7842 11.9305 28.9525 13.0752 26.9345 13.2395C28.398 14.6186 30.6031 17.8602 27.7163 19.7938C24.1077 22.2109 21.8531 14.8388 21.7473 15.2335C21.6416 15.6282 20.5841 19.5747 17.1379 18.2283C14.381 17.1512 16.9246 13.2363 18.541 11.4134C16.7603 11.2183 13.3893 10.1176 14.1507 7.27608C14.912 4.43454 18.7668 5.83402 20.5991 6.88896C20.7048 6.4943 20.3951 1.33559 22.8688 1.57543Z" fill="#0AA5A5"/>
</svg>
