<svg width="233" height="26" viewBox="0 0 233 26" fill="none" xmlns="http://www.w3.org/2000/svg">
<rect width="3" height="26" fill="#3B2F2F"/>
<rect x="5" width="2" height="26" fill="#3B2F2F"/>
<rect x="9" width="2" height="26" fill="#3B2F2F"/>
<rect x="17" width="3" height="26" fill="#3B2F2F"/>
<rect x="23" width="6" height="26" fill="#3B2F2F"/>
<rect x="30" width="6" height="26" fill="#3B2F2F"/>
<rect x="38" width="2" height="26" fill="#3B2F2F"/>
<rect x="44" width="2" height="26" fill="#3B2F2F"/>
<rect x="50" width="3" height="26" fill="#3B2F2F"/>
<rect x="55" width="5" height="26" fill="#3B2F2F"/>
<rect x="62" width="6" height="26" fill="#3B2F2F"/>
<rect x="69" width="4" height="26" fill="#3B2F2F"/>
<rect x="77" width="3" height="26" fill="#3B2F2F"/>
<rect x="83" width="4" height="26" fill="#3B2F2F"/>
<rect x="89" width="5" height="26" fill="#3B2F2F"/>
<rect x="96" width="5" height="26" fill="#3B2F2F"/>
<rect x="102" width="4" height="26" fill="#3B2F2F"/>
<rect x="107" width="4" height="26" fill="#3B2F2F"/>
<rect x="112" width="5" height="26" fill="#3B2F2F"/>
<rect x="118" width="3" height="26" fill="#3B2F2F"/>
<rect x="124" width="2" height="26" fill="#3B2F2F"/>
<rect x="130" width="1" height="26" fill="#3B2F2F"/>
<rect x="133" width="4" height="26" fill="#3B2F2F"/>
<rect x="139" width="3" height="26" fill="#3B2F2F"/>
<rect x="146" width="2" height="26" fill="#3B2F2F"/>
<rect x="150" width="4" height="26" fill="#3B2F2F"/>
<rect x="156" width="3" height="26" fill="#3B2F2F"/>
<rect x="162" width="4" height="26" fill="#3B2F2F"/>
<rect x="168" width="5" height="26" fill="#3B2F2F"/>
<rect x="175" width="3" height="26" fill="#3B2F2F"/>
<rect x="182" width="4" height="26" fill="#3B2F2F"/>
<rect x="188" width="6" height="26" fill="#3B2F2F"/>
<rect x="195" width="6" height="26" fill="#3B2F2F"/>
<rect x="203" width="3" height="26" fill="#3B2F2F"/>
<rect x="210" width="4" height="26" fill="#3B2F2F"/>
<rect x="218" width="6" height="26" fill="#3B2F2F"/>
<rect x="225" width="3" height="26" fill="#3B2F2F"/>
<rect x="229" width="4" height="26" fill="#3B2F2F"/>
</svg>
