<svg width="12" height="16" viewBox="0 0 12 16" fill="none" xmlns="http://www.w3.org/2000/svg">
<path d="M2.61299 16C3.24399 16.0008 3.856 15.7842 4.3461 15.3867L11.1452 9.77394C11.4118 9.56167 11.6272 9.292 11.7751 8.98501C11.9231 8.67801 12 8.34159 12 8.00078C12 7.65997 11.9231 7.32355 11.7751 7.01655C11.6272 6.70955 11.4118 6.43989 11.1452 6.22762L4.3461 0.614831C3.93678 0.286855 3.44355 0.0804639 2.92264 0.019178C2.40173 -0.0421078 1.87408 0.0441759 1.39982 0.268198C0.987638 0.449886 0.636468 0.746382 0.388246 1.12227C0.140024 1.49816 0.0052433 1.93756 0 2.38799V13.6136C0.0052433 14.064 0.140024 14.5034 0.388246 14.8793C0.636468 15.2552 0.987638 15.5517 1.39982 15.7334C1.78053 15.9078 2.1942 15.9988 2.61299 16Z" fill="#E15B47"/>
</svg>
