<svg width="37" height="32" viewBox="0 0 37 32" fill="none" xmlns="http://www.w3.org/2000/svg">
<path d="M25.0726 4.59606C25.0726 4.59606 37.3376 9.25853 36.9929 19.8665C36.8362 24.6913 32.4184 27.6329 28.357 29.2939C26.0863 30.2228 23.7018 30.8746 21.2974 31.3591C17.8571 32.0519 14.2444 32.3938 10.8536 31.2763C6.34766 29.7916 1.19257 25.4489 0.176395 20.6503C-0.519749 17.3644 0.967393 14.4441 2.49083 11.6418C3.64722 9.51514 4.99002 7.49176 6.86977 5.92175C11.9911 1.64461 25.0735 4.59606 25.0735 4.59606H25.0726Z" fill="#E15B47"/>
<path d="M21.3432 3.91836C21.3432 3.91836 25.2487 2.18603 24.7967 1.22353C24.3447 0.261025 24.1871 0.101155 23.0876 0.00441303C21.9882 -0.0923289 19.3743 1.41619 18.1478 3.08458C18.1478 3.08458 16.7275 3.32479 15.9373 3.08458C15.1471 2.84436 10.5471 2.82797 9.86915 3.75849C9.19115 4.68902 11.3703 5.00958 12.4838 5.42688C12.4838 5.42688 9.85348 6.59762 9.35282 7.62407C8.85215 8.65052 10.1116 8.45785 10.7245 8.26601C11.3373 8.07417 14.1137 7.38386 15.8243 6.69436C15.8243 6.69436 15.9052 7.60849 15.6305 8.66774C15.3558 9.72698 14.7265 13.6401 15.6305 14.2657C16.5345 14.8912 18.1668 12.348 19.3125 8.69069C19.3125 8.69069 20.6973 12.0652 21.4718 12.1931C22.2463 12.321 22.3915 11.1986 21.8108 8.34308C21.8108 8.34308 21.4232 6.86735 21.8752 6.73864C22.3272 6.60992 26.2805 6.22541 27.5392 5.64824C27.5392 5.64824 28.0555 5.13502 26.7003 4.78166C25.3452 4.42831 21.3432 3.91836 21.3432 3.91836Z" fill="#0AA5A5"/>
</svg>
