<svg width="85" height="86" viewBox="0 0 85 86" fill="none" xmlns="http://www.w3.org/2000/svg">
<path d="M85 43.4291C85 66.9405 65.9721 86.0003 42.5 86.0003C19.0279 86.0003 0 66.9405 0 43.4291C0 19.9177 19.0279 0.85791 42.5 0.85791C65.9721 0.85791 85 19.9177 85 43.4291Z" fill="#FF785D"/>
<path d="M40.4982 3.22321C44.0026 3.56354 44.5287 10.5575 44.3537 14.012C47.8359 12.1954 55.1623 10.0098 56.6095 15.8004C58.0567 21.5911 51.2715 23.6215 47.6979 23.9129C50.2895 26.3591 54.1944 32.1091 49.0822 35.539C42.692 39.8263 38.6995 26.7498 38.5122 27.4499C38.325 28.1499 36.4523 35.1504 30.3497 32.7622C25.4676 30.8516 29.9719 23.9072 32.8343 20.6738C29.681 20.3277 23.7115 18.3753 25.0598 13.335C26.4081 8.29471 33.2343 10.7771 36.4789 12.6483C36.6661 11.9483 36.1177 2.7978 40.4982 3.22321Z" fill="#0AA5A5"/>
</svg>
