<svg width="739" height="739" viewBox="0 0 739 739" fill="none" xmlns="http://www.w3.org/2000/svg">
<rect width="739" height="739" fill="white"/>
<path d="M483.743 135C549.827 135 603.398 188.572 603.398 254.655C603.398 320.14 550.793 373.337 485.536 374.296L485.547 374.311L485.072 374.302C484.63 374.307 484.187 374.311 483.743 374.311C481.869 374.311 480.006 374.264 478.153 374.179L417.603 373.107C384.893 378.399 368.698 402.571 364.689 413.995V604H135V352.062C157.247 361.683 193.325 381.525 269.086 366.493C325.305 355.338 354.827 285.036 364.567 243.879C370.015 182.844 421.292 135 483.743 135Z" fill="black"/>
</svg>
