<svg width="472" height="158" viewBox="0 0 472 158" fill="none" xmlns="http://www.w3.org/2000/svg">
<rect width="472" height="158" rx="79" fill="white"/>
<path d="M182.75 79.5713C182.75 110.913 157.342 136.321 126 136.321C94.6578 136.321 69.25 110.913 69.25 79.5713C69.25 48.2291 94.6578 22.8213 126 22.8213C157.342 22.8213 182.75 48.2291 182.75 79.5713Z" fill="#FF785D"/>
<path d="M123.322 25.9745C128.002 26.4282 128.704 35.7516 128.47 40.3566C133.12 37.9349 142.903 35.0214 144.836 42.7407C146.768 50.46 137.708 53.1666 132.936 53.5551C136.397 56.8161 141.611 64.4812 134.785 69.0534C126.252 74.7687 120.921 57.3369 120.67 58.2701C120.42 59.2033 117.92 68.5354 109.771 65.3517C103.252 62.8048 109.267 53.5475 113.089 49.2372C108.878 48.7758 100.907 46.1732 102.708 39.4541C104.508 32.7351 113.623 36.0443 117.955 38.5388C118.205 37.6056 117.473 25.4074 123.322 25.9745Z" fill="#0AA5A5"/>
<path d="M201.246 70.272C201.246 67.5413 201.95 65.1307 203.358 63.04C204.766 60.9493 206.707 59.328 209.182 58.176C211.699 56.9813 214.601 56.384 217.886 56.384C221.043 56.384 223.774 56.9387 226.078 58.048C228.425 59.1573 230.238 60.736 231.518 62.784C232.841 64.832 233.545 67.264 233.63 70.08H225.438C225.353 68.0747 224.627 66.5173 223.262 65.408C221.897 64.256 220.062 63.68 217.758 63.68C215.241 63.68 213.214 64.256 211.678 65.408C210.185 66.5173 209.438 68.0533 209.438 70.016C209.438 71.68 209.886 73.0027 210.782 73.984C211.721 74.9227 213.171 75.6267 215.134 76.096L222.494 77.76C226.505 78.6133 229.491 80.0853 231.454 82.176C233.417 84.224 234.398 86.9973 234.398 90.496C234.398 93.3547 233.694 95.872 232.286 98.048C230.878 100.224 228.873 101.909 226.27 103.104C223.71 104.256 220.702 104.832 217.246 104.832C213.961 104.832 211.081 104.277 208.606 103.168C206.131 102.016 204.19 100.416 202.782 98.368C201.417 96.32 200.691 93.9093 200.606 91.136H208.798C208.841 93.0987 209.609 94.656 211.102 95.808C212.638 96.9173 214.707 97.472 217.31 97.472C220.041 97.472 222.195 96.9173 223.774 95.808C225.395 94.656 226.206 93.1413 226.206 91.264C226.206 89.6427 225.779 88.3627 224.926 87.424C224.073 86.4427 222.686 85.76 220.766 85.376L213.342 83.712C209.374 82.8587 206.366 81.3227 204.318 79.104C202.27 76.8427 201.246 73.8987 201.246 70.272ZM240.209 86.912V57.216H248.401V86.4C248.401 89.7707 249.297 92.352 251.089 94.144C252.881 95.936 255.42 96.832 258.705 96.832C262.033 96.832 264.593 95.936 266.385 94.144C268.177 92.3093 269.073 89.728 269.073 86.4V57.216H277.265V86.912C277.265 90.5387 276.497 93.696 274.961 96.384C273.468 99.0293 271.334 101.099 268.561 102.592C265.788 104.043 262.502 104.768 258.705 104.768C254.95 104.768 251.686 104.043 248.913 102.592C246.14 101.141 243.985 99.072 242.449 96.384C240.956 93.696 240.209 90.5387 240.209 86.912ZM293.998 104H286.062V57.216H293.998L309.102 94.464L324.206 57.216H332.27V104H324.334V89.6C324.334 87.2533 324.334 85.2907 324.334 83.712C324.334 82.0907 324.355 80.7253 324.398 79.616C324.44 78.5067 324.483 77.5253 324.526 76.672C324.568 75.8187 324.654 74.9653 324.782 74.112L312.878 104H305.326L293.486 74.176C293.699 75.584 293.827 77.376 293.87 79.552C293.955 81.728 293.998 84.288 293.998 87.232V104ZM349.536 57.216V104H341.344V57.216H349.536ZM366.691 104H358.627V57.216H366.755L391.075 94.016H388.707V57.216H396.771V104H388.707L364.323 67.264H366.691V104Z" fill="#3B2F2F"/>
</svg>
